<svg xmlns="http://www.w3.org/2000/svg" viewBox="0 0 512 512">
  <defs>
    <linearGradient id="bg" x1="0" y1="0" x2="0" y2="1">
      <stop offset="0" stop-color="#dff3d2"/>
      <stop offset="1" stop-color="#4a8d3c"/>
    </linearGradient>
  </defs>
  <rect width="512" height="512" rx="96" fill="url(#bg)"/>
  <path d="M256 96
           C 156 96 96 176 96 272
           c 0 56 28 100 60 132
           c -8 -68 24 -128 80 -160
           c -20 56 8 112 56 144
           c 0 -40 12 -76 32 -108
           c 0 56 -16 100 -48 132
           c 76 -24 132 -96 132 -180
           c 0 -96 -60 -176 -152 -176 z"
        fill="#3a6e30" opacity="0.92"/>
  <circle cx="380" cy="128" r="40" fill="#f5c451"/>
  <circle cx="380" cy="128" r="20" fill="#e9ad27"/>
</svg>
