<svg width="150" xmlns="http://www.w3.org/2000/svg" height="112" id="screenshot-c989129d-28d9-8066-8008-2cf0ac9f195d" viewBox="0 0 150 112" xmlns:xlink="http://www.w3.org/1999/xlink" fill="none" version="1.1"><g id="shape-c989129d-28d9-8066-8008-2cf0ac9f195d" rx="0" ry="0"><g id="shape-c989129d-28d9-8066-8008-2cf0ac9f195e"><g class="fills" id="fills-c989129d-28d9-8066-8008-2cf0ac9f195e"><path d="M0.00000762939453125,0L9.649131774902344,5.583251953125L19.298255920410156,9.305419921875C39.47368621826172,15.81915283203125,53.50877380371094,3.72216796875,73.20542907714844,6.9146728515625L73.6842041015625,6.9598388671875L73.66641235351562,6.98028564453125C83.33332824707031,8.3748779296875,94.31993103027344,11.702392578125,100.877197265625,16.74969482421875C119.09828186035156,30.7747802734375,121.53596496582031,57.1583251953125,107.79205322265625,70.51470947265625C100.877197265625,77.234619140625,96.59931945800781,78.021728515625,90.35087585449219,80.0262451171875C89.98324584960938,85.89202880859375,91.22807312011719,93.05377197265625,86.84210205078125,99.56756591796875C81.63676452636719,107.29815673828125,73.21826171875,111.24884033203125,64.1041259765625,111.9058837890625C54.24900817871094,112.6163330078125,43.35791015625,109.30230712890625,33.891510009765625,102.01580810546875C22.314697265625,93.10491943359375,15.789482116699219,72.58197021484375,13.15789794921875,60.4849853515625L8.771934509277344,41.87420654296875L0.00000762939453125,0" style="fill: rgb(46, 56, 38); fill-opacity: 1;"/></g></g><g id="shape-c989129d-28d9-8066-8008-2cf0ac9f195f"><g class="fills" id="fills-c989129d-28d9-8066-8008-2cf0ac9f195f"><path d="M82.45614624023438,80.956787109375C82.45614624023438,80.956787109375,109.64912414550781,74.4429931640625,119.29824829101562,93.05377197265625C127.44172668457031,108.760498046875,150,110.7340087890625,150,110.7340087890625"/></g><g id="strokes-e62fa02a-07d8-80ab-8008-2cfb5b00afba-c989129d-28d9-8066-8008-2cf0ac9f195f" class="strokes"><g class="stroke-shape"><path d="M82.45614624023438,80.956787109375C82.45614624023438,80.956787109375,109.64912414550781,74.4429931640625,119.29824829101562,93.05377197265625C127.44172668457031,108.760498046875,150,110.7340087890625,150,110.7340087890625" style="fill: none; stroke-width: 10; stroke: rgb(46, 56, 38); stroke-opacity: 1;"/></g></g></g></g></svg>