<svg width="1152" xmlns="http://www.w3.org/2000/svg" height="1619" id="screenshot-c989129d-28d9-8066-8008-2cf5bd07123f" viewBox="-375 -375 1152 1619" xmlns:xlink="http://www.w3.org/1999/xlink" fill="none" version="1.1"><g id="shape-c989129d-28d9-8066-8008-2cf5bd07123f" style="opacity: 0.3;"><defs><filter id="filter-render-1" x="-0.9179104477611941" y="-0.42462600690448793" width="2.8358208955223883" height="1.8492520138089759" filterUnits="objectBoundingBox" color-interpolation-filters="sRGB"><feFlood flood-opacity="0" result="BackgroundImageFix"/><feBlend mode="normal" in="SourceGraphic" in2="BackgroundImageFix" result="shape"/><feGaussianBlur stdDeviation="3" result="filter_c989129d-28d9-8066-8008-2c4172cf4d64"/></filter><filter id="filter-blur-render-1" x="-0.9179104477611941" y="-0.42462600690448793" width="2.8358208955223883" height="1.8492520138089759" filterUnits="objectBoundingBox" color-interpolation-filters="sRGB"><feFlood flood-opacity="0" result="BackgroundImageFix"/><feBlend mode="normal" in="SourceGraphic" in2="BackgroundImageFix" result="shape"/><feGaussianBlur stdDeviation="3" result="filter_c989129d-28d9-8066-8008-2c4172cf4d64"/></filter></defs><g class="fills" id="fills-c989129d-28d9-8066-8008-2cf5bd07123f"><path d="M0.0000023995676201593596,0.00000356858777195157L14.00000286102295,102.99999237060547C14.00000286102295,102.99999237060547,39.844242095947266,230.56068420410156,121.99999237060547,238.00001525878906C209.17755126953125,245.89405822753906,233,192.00001525878906,286,205.00001525878906C348.67095947265625,220.37208557128906,358,271,344,323C329.45867919921875,377.0108642578125,256,363,256,363C256,363,134.66015625,348.78125,90.99999237060547,416.9999694824219C58.999996185302734,466.9999694824219,71.25011444091797,552.57861328125,110.99999237060547,578C185.91680908203125,625.911865234375,223,593,290,611C369.36309814453125,632.3214111328125,387,711,387,711L402,869" filter="url(#filter-render-1)"/></g><g id="strokes-ee6dce57-3ac3-80ec-8008-2cfb048e7c20-c989129d-28d9-8066-8008-2cf5bd07123f" class="strokes" filter="url(#filter-blur-render-1)"><g class="stroke-shape"><path d="M0.0000023995676201593596,0.00000356858777195157L14.00000286102295,102.99999237060547C14.00000286102295,102.99999237060547,39.844242095947266,230.56068420410156,121.99999237060547,238.00001525878906C209.17755126953125,245.89405822753906,233,192.00001525878906,286,205.00001525878906C348.67095947265625,220.37208557128906,358,271,344,323C329.45867919921875,377.0108642578125,256,363,256,363C256,363,134.66015625,348.78125,90.99999237060547,416.9999694824219C58.999996185302734,466.9999694824219,71.25011444091797,552.57861328125,110.99999237060547,578C185.91680908203125,625.911865234375,223,593,290,611C369.36309814453125,632.3214111328125,387,711,387,711L402,869" style="fill: none; stroke-width: 150; stroke: rgb(157, 184, 136); stroke-opacity: 1; stroke-linecap: round;"/></g></g></g></svg>