<svg width="402" xmlns="http://www.w3.org/2000/svg" height="874" id="screenshot-9b90c403-0d2e-806c-8008-2b44e35c1c57" viewBox="0 0 402 874" xmlns:xlink="http://www.w3.org/1999/xlink" fill="none" version="1.1"><style>@font-face {
    font-family: 'sourcesanspro';
    font-style: normal;
    font-weight: 400;
    font-display: block;
    src: url(http://penpot-frontend:8080/fonts/sourcesanspro-regular.woff) format('woff');
  }
/* cyrillic-ext */
@font-face {
  font-family: 'Source Code Pro';
  font-style: normal;
  font-weight: 700;
  font-display: block;
  src: url(http://penpot-frontend:8080/internal/gfonts/font/sourcecodepro/v31/HI_diYsKILxRpg3hIP6sJ7fM7PqPMcMnZFqUwX28DCuXtMRrTEUc.woff2) format('woff2');
  unicode-range: U+0460-052F, U+1C80-1C8A, U+20B4, U+2DE0-2DFF, U+A640-A69F, U+FE2E-FE2F;
}
/* cyrillic */
@font-face {
  font-family: 'Source Code Pro';
  font-style: normal;
  font-weight: 700;
  font-display: block;
  src: url(http://penpot-frontend:8080/internal/gfonts/font/sourcecodepro/v31/HI_diYsKILxRpg3hIP6sJ7fM7PqPMcMnZFqUwX28DCuXtM1rTEUc.woff2) format('woff2');
  unicode-range: U+0301, U+0400-045F, U+0490-0491, U+04B0-04B1, U+2116;
}
/* greek-ext */
@font-face {
  font-family: 'Source Code Pro';
  font-style: normal;
  font-weight: 700;
  font-display: block;
  src: url(http://penpot-frontend:8080/internal/gfonts/font/sourcecodepro/v31/HI_diYsKILxRpg3hIP6sJ7fM7PqPMcMnZFqUwX28DCuXtMVrTEUc.woff2) format('woff2');
  unicode-range: U+1F00-1FFF;
}
/* greek */
@font-face {
  font-family: 'Source Code Pro';
  font-style: normal;
  font-weight: 700;
  font-display: block;
  src: url(http://penpot-frontend:8080/internal/gfonts/font/sourcecodepro/v31/HI_diYsKILxRpg3hIP6sJ7fM7PqPMcMnZFqUwX28DCuXtMprTEUc.woff2) format('woff2');
  unicode-range: U+0370-0377, U+037A-037F, U+0384-038A, U+038C, U+038E-03A1, U+03A3-03FF;
}
/* vietnamese */
@font-face {
  font-family: 'Source Code Pro';
  font-style: normal;
  font-weight: 700;
  font-display: block;
  src: url(http://penpot-frontend:8080/internal/gfonts/font/sourcecodepro/v31/HI_diYsKILxRpg3hIP6sJ7fM7PqPMcMnZFqUwX28DCuXtMZrTEUc.woff2) format('woff2');
  unicode-range: U+0102-0103, U+0110-0111, U+0128-0129, U+0168-0169, U+01A0-01A1, U+01AF-01B0, U+0300-0301, U+0303-0304, U+0308-0309, U+0323, U+0329, U+1EA0-1EF9, U+20AB;
}
/* latin-ext */
@font-face {
  font-family: 'Source Code Pro';
  font-style: normal;
  font-weight: 700;
  font-display: block;
  src: url(http://penpot-frontend:8080/internal/gfonts/font/sourcecodepro/v31/HI_diYsKILxRpg3hIP6sJ7fM7PqPMcMnZFqUwX28DCuXtMdrTEUc.woff2) format('woff2');
  unicode-range: U+0100-02BA, U+02BD-02C5, U+02C7-02CC, U+02CE-02D7, U+02DD-02FF, U+0304, U+0308, U+0329, U+1D00-1DBF, U+1E00-1E9F, U+1EF2-1EFF, U+2020, U+20A0-20AB, U+20AD-20C0, U+2113, U+2C60-2C7F, U+A720-A7FF;
}
/* latin */
@font-face {
  font-family: 'Source Code Pro';
  font-style: normal;
  font-weight: 700;
  font-display: block;
  src: url(http://penpot-frontend:8080/internal/gfonts/font/sourcecodepro/v31/HI_diYsKILxRpg3hIP6sJ7fM7PqPMcMnZFqUwX28DCuXtMlrTA.woff2) format('woff2');
  unicode-range: U+0000-00FF, U+0131, U+0152-0153, U+02BB-02BC, U+02C6, U+02DA, U+02DC, U+0304, U+0308, U+0329, U+2000-206F, U+20AC, U+2122, U+2191, U+2193, U+2212, U+2215, U+FEFF, U+FFFD;
}

/* cyrillic-ext */
@font-face {
  font-family: 'Source Code Pro';
  font-style: normal;
  font-weight: 400;
  font-display: block;
  src: url(http://penpot-frontend:8080/internal/gfonts/font/sourcecodepro/v31/HI_diYsKILxRpg3hIP6sJ7fM7PqPMcMnZFqUwX28DMyQtMRrTEUc.woff2) format('woff2');
  unicode-range: U+0460-052F, U+1C80-1C8A, U+20B4, U+2DE0-2DFF, U+A640-A69F, U+FE2E-FE2F;
}
/* cyrillic */
@font-face {
  font-family: 'Source Code Pro';
  font-style: normal;
  font-weight: 400;
  font-display: block;
  src: url(http://penpot-frontend:8080/internal/gfonts/font/sourcecodepro/v31/HI_diYsKILxRpg3hIP6sJ7fM7PqPMcMnZFqUwX28DMyQtM1rTEUc.woff2) format('woff2');
  unicode-range: U+0301, U+0400-045F, U+0490-0491, U+04B0-04B1, U+2116;
}
/* greek-ext */
@font-face {
  font-family: 'Source Code Pro';
  font-style: normal;
  font-weight: 400;
  font-display: block;
  src: url(http://penpot-frontend:8080/internal/gfonts/font/sourcecodepro/v31/HI_diYsKILxRpg3hIP6sJ7fM7PqPMcMnZFqUwX28DMyQtMVrTEUc.woff2) format('woff2');
  unicode-range: U+1F00-1FFF;
}
/* greek */
@font-face {
  font-family: 'Source Code Pro';
  font-style: normal;
  font-weight: 400;
  font-display: block;
  src: url(http://penpot-frontend:8080/internal/gfonts/font/sourcecodepro/v31/HI_diYsKILxRpg3hIP6sJ7fM7PqPMcMnZFqUwX28DMyQtMprTEUc.woff2) format('woff2');
  unicode-range: U+0370-0377, U+037A-037F, U+0384-038A, U+038C, U+038E-03A1, U+03A3-03FF;
}
/* vietnamese */
@font-face {
  font-family: 'Source Code Pro';
  font-style: normal;
  font-weight: 400;
  font-display: block;
  src: url(http://penpot-frontend:8080/internal/gfonts/font/sourcecodepro/v31/HI_diYsKILxRpg3hIP6sJ7fM7PqPMcMnZFqUwX28DMyQtMZrTEUc.woff2) format('woff2');
  unicode-range: U+0102-0103, U+0110-0111, U+0128-0129, U+0168-0169, U+01A0-01A1, U+01AF-01B0, U+0300-0301, U+0303-0304, U+0308-0309, U+0323, U+0329, U+1EA0-1EF9, U+20AB;
}
/* latin-ext */
@font-face {
  font-family: 'Source Code Pro';
  font-style: normal;
  font-weight: 400;
  font-display: block;
  src: url(http://penpot-frontend:8080/internal/gfonts/font/sourcecodepro/v31/HI_diYsKILxRpg3hIP6sJ7fM7PqPMcMnZFqUwX28DMyQtMdrTEUc.woff2) format('woff2');
  unicode-range: U+0100-02BA, U+02BD-02C5, U+02C7-02CC, U+02CE-02D7, U+02DD-02FF, U+0304, U+0308, U+0329, U+1D00-1DBF, U+1E00-1E9F, U+1EF2-1EFF, U+2020, U+20A0-20AB, U+20AD-20C0, U+2113, U+2C60-2C7F, U+A720-A7FF;
}
/* latin */
@font-face {
  font-family: 'Source Code Pro';
  font-style: normal;
  font-weight: 400;
  font-display: block;
  src: url(http://penpot-frontend:8080/internal/gfonts/font/sourcecodepro/v31/HI_diYsKILxRpg3hIP6sJ7fM7PqPMcMnZFqUwX28DMyQtMlrTA.woff2) format('woff2');
  unicode-range: U+0000-00FF, U+0131, U+0152-0153, U+02BB-02BC, U+02C6, U+02DA, U+02DC, U+0304, U+0308, U+0329, U+2000-206F, U+20AC, U+2122, U+2191, U+2193, U+2212, U+2215, U+FEFF, U+FFFD;
}

/* cyrillic-ext */
@font-face {
  font-family: 'Source Code Pro';
  font-style: normal;
  font-weight: 500;
  font-display: block;
  src: url(http://penpot-frontend:8080/internal/gfonts/font/sourcecodepro/v31/HI_diYsKILxRpg3hIP6sJ7fM7PqPMcMnZFqUwX28DP6QtMRrTEUc.woff2) format('woff2');
  unicode-range: U+0460-052F, U+1C80-1C8A, U+20B4, U+2DE0-2DFF, U+A640-A69F, U+FE2E-FE2F;
}
/* cyrillic */
@font-face {
  font-family: 'Source Code Pro';
  font-style: normal;
  font-weight: 500;
  font-display: block;
  src: url(http://penpot-frontend:8080/internal/gfonts/font/sourcecodepro/v31/HI_diYsKILxRpg3hIP6sJ7fM7PqPMcMnZFqUwX28DP6QtM1rTEUc.woff2) format('woff2');
  unicode-range: U+0301, U+0400-045F, U+0490-0491, U+04B0-04B1, U+2116;
}
/* greek-ext */
@font-face {
  font-family: 'Source Code Pro';
  font-style: normal;
  font-weight: 500;
  font-display: block;
  src: url(http://penpot-frontend:8080/internal/gfonts/font/sourcecodepro/v31/HI_diYsKILxRpg3hIP6sJ7fM7PqPMcMnZFqUwX28DP6QtMVrTEUc.woff2) format('woff2');
  unicode-range: U+1F00-1FFF;
}
/* greek */
@font-face {
  font-family: 'Source Code Pro';
  font-style: normal;
  font-weight: 500;
  font-display: block;
  src: url(http://penpot-frontend:8080/internal/gfonts/font/sourcecodepro/v31/HI_diYsKILxRpg3hIP6sJ7fM7PqPMcMnZFqUwX28DP6QtMprTEUc.woff2) format('woff2');
  unicode-range: U+0370-0377, U+037A-037F, U+0384-038A, U+038C, U+038E-03A1, U+03A3-03FF;
}
/* vietnamese */
@font-face {
  font-family: 'Source Code Pro';
  font-style: normal;
  font-weight: 500;
  font-display: block;
  src: url(http://penpot-frontend:8080/internal/gfonts/font/sourcecodepro/v31/HI_diYsKILxRpg3hIP6sJ7fM7PqPMcMnZFqUwX28DP6QtMZrTEUc.woff2) format('woff2');
  unicode-range: U+0102-0103, U+0110-0111, U+0128-0129, U+0168-0169, U+01A0-01A1, U+01AF-01B0, U+0300-0301, U+0303-0304, U+0308-0309, U+0323, U+0329, U+1EA0-1EF9, U+20AB;
}
/* latin-ext */
@font-face {
  font-family: 'Source Code Pro';
  font-style: normal;
  font-weight: 500;
  font-display: block;
  src: url(http://penpot-frontend:8080/internal/gfonts/font/sourcecodepro/v31/HI_diYsKILxRpg3hIP6sJ7fM7PqPMcMnZFqUwX28DP6QtMdrTEUc.woff2) format('woff2');
  unicode-range: U+0100-02BA, U+02BD-02C5, U+02C7-02CC, U+02CE-02D7, U+02DD-02FF, U+0304, U+0308, U+0329, U+1D00-1DBF, U+1E00-1E9F, U+1EF2-1EFF, U+2020, U+20A0-20AB, U+20AD-20C0, U+2113, U+2C60-2C7F, U+A720-A7FF;
}
/* latin */
@font-face {
  font-family: 'Source Code Pro';
  font-style: normal;
  font-weight: 500;
  font-display: block;
  src: url(http://penpot-frontend:8080/internal/gfonts/font/sourcecodepro/v31/HI_diYsKILxRpg3hIP6sJ7fM7PqPMcMnZFqUwX28DP6QtMlrTA.woff2) format('woff2');
  unicode-range: U+0000-00FF, U+0131, U+0152-0153, U+02BB-02BC, U+02C6, U+02DA, U+02DC, U+0304, U+0308, U+0329, U+2000-206F, U+20AC, U+2122, U+2191, U+2193, U+2212, U+2215, U+FEFF, U+FFFD;
}
</style><g id="shape-9b90c403-0d2e-806c-8008-2b44e35c1c57"><defs><clipPath id="frame-clip-9b90c403-0d2e-806c-8008-2b44e35c1c57-render-1" class="frame-clip frame-clip-def"><rect rx="0" ry="0" x="0" y="0" width="401.99999999999994" height="874" transform="matrix(1.000000, 0.000000, 0.000000, 1.000000, 0.000000, 0.000000)"/></clipPath></defs><g class="frame-container-wrapper"><g class="frame-container-blur"><g class="frame-container-shadows"><g clip-path="url(#frame-clip-9b90c403-0d2e-806c-8008-2b44e35c1c57-render-1)" fill="none"><g class="fills" id="fills-9b90c403-0d2e-806c-8008-2b44e35c1c57"><rect width="401.99999999999994" height="874" class="frame-background" x="0" transform="matrix(1.000000, 0.000000, 0.000000, 1.000000, 0.000000, 0.000000)" style="fill: rgb(26, 31, 20); fill-opacity: 1;" ry="0" rx="0" y="0"/></g><g class="frame-children"><g id="shape-c989129d-28d9-8066-8008-2cf35256e2c8" rx="0" ry="0"><g id="shape-c989129d-28d9-8066-8008-2cf0ac9f195a" rx="0" ry="0"><g id="shape-c989129d-28d9-8066-8008-2cf0ac9f195b"><g class="fills" id="fills-c989129d-28d9-8066-8008-2cf0ac9f195b"><path d="M30.00000762939453,353L39.649131774902344,358.5832214355469L49.298255920410156,362.3053894042969C69.47368621826172,368.81915283203125,83.50877380371094,356.7221374511719,103.20542907714844,359.9146423339844L103.6842041015625,359.9598388671875L103.66641235351562,359.98028564453125C113.33332824707031,361.3748474121094,124.31993103027344,364.7024230957031,130.877197265625,369.74969482421875C149.09828186035156,383.7747802734375,151.5359649658203,410.1583251953125,137.79205322265625,423.51470947265625C130.877197265625,430.234619140625,126.59931945800781,431.021728515625,120.35087585449219,433.0262451171875C119.98324584960938,438.89202880859375,121.22807312011719,446.05377197265625,116.84210205078125,452.56756591796875C111.63676452636719,460.29815673828125,103.21826171875,464.24884033203125,94.1041259765625,464.9058837890625C84.24900817871094,465.6163330078125,73.35790252685547,462.30230712890625,63.891510009765625,455.01580810546875C52.314697265625,446.10491943359375,45.78948211669922,425.58197021484375,43.15789794921875,413.4849853515625L38.771934509277344,394.87420654296875L30.00000762939453,353" style="fill: rgb(46, 56, 38); fill-opacity: 1;"/></g></g><g id="shape-c989129d-28d9-8066-8008-2cf0ac9f195c"><g class="fills" id="fills-c989129d-28d9-8066-8008-2cf0ac9f195c"><path d="M112.45614624023438,433.956787109375C112.45614624023438,433.956787109375,139.6491241455078,427.4429931640625,149.29824829101562,446.05377197265625C157.4417266845703,461.760498046875,180,463.7340087890625,180,463.7340087890625"/></g><g id="strokes-a2fee81e-05df-80dc-8008-2cf8258025a6-c989129d-28d9-8066-8008-2cf0ac9f195c" class="strokes"><g class="stroke-shape"><path d="M112.45614624023438,433.956787109375C112.45614624023438,433.956787109375,139.6491241455078,427.4429931640625,149.29824829101562,446.05377197265625C157.4417266845703,461.760498046875,180,463.7340087890625,180,463.7340087890625" style="fill: none; stroke-width: 10; stroke: rgb(46, 56, 38); stroke-opacity: 1;"/></g></g></g></g><g id="shape-c989129d-28d9-8066-8008-2cf0ac9f195d" rx="0" ry="0"><g id="shape-c989129d-28d9-8066-8008-2cf0ac9f195e"><g class="fills" id="fills-c989129d-28d9-8066-8008-2cf0ac9f195e"><path d="M45.00000762939453,561L54.649131774902344,566.583251953125L64.29825592041016,570.305419921875C84.47368621826172,576.8191528320312,98.50877380371094,564.72216796875,118.20542907714844,567.9146728515625L118.6842041015625,567.9598388671875L118.66641235351562,567.9802856445312C128.3333282470703,569.3748779296875,139.31993103027344,572.702392578125,145.877197265625,577.7496948242188C164.09828186035156,591.7747802734375,166.5359649658203,618.1583251953125,152.79205322265625,631.5147094726562C145.877197265625,638.234619140625,141.5993194580078,639.021728515625,135.3508758544922,641.0262451171875C134.98324584960938,646.8920288085938,136.2280731201172,654.0537719726562,131.84210205078125,660.5675659179688C126.63676452636719,668.2981567382812,118.21826171875,672.2488403320312,109.1041259765625,672.9058837890625C99.24900817871094,673.6163330078125,88.35791015625,670.3023071289062,78.89151000976562,663.0158081054688C67.314697265625,654.1049194335938,60.78948211669922,633.5819702148438,58.15789794921875,621.4849853515625L53.771934509277344,602.8742065429688L45.00000762939453,561" style="fill: rgb(46, 56, 38); fill-opacity: 1;"/></g></g><g id="shape-c989129d-28d9-8066-8008-2cf0ac9f195f"><g class="fills" id="fills-c989129d-28d9-8066-8008-2cf0ac9f195f"><path d="M127.45614624023438,641.956787109375C127.45614624023438,641.956787109375,154.6491241455078,635.4429931640625,164.29824829101562,654.0537719726562C172.4417266845703,669.760498046875,195,671.7340087890625,195,671.7340087890625"/></g><g id="strokes-a2fee81e-05df-80dc-8008-2cf825815e14-c989129d-28d9-8066-8008-2cf0ac9f195f" class="strokes"><g class="stroke-shape"><path d="M127.45614624023438,641.956787109375C127.45614624023438,641.956787109375,154.6491241455078,635.4429931640625,164.29824829101562,654.0537719726562C172.4417266845703,669.760498046875,195,671.7340087890625,195,671.7340087890625" style="fill: none; stroke-width: 10; stroke: rgb(46, 56, 38); stroke-opacity: 1;"/></g></g></g></g><g id="shape-c989129d-28d9-8066-8008-2cf0ac9f1960" rx="0" ry="0"><g id="shape-c989129d-28d9-8066-8008-2cf0ac9f1961"><g class="fills" id="fills-c989129d-28d9-8066-8008-2cf0ac9f1961"><path d="M324,449L314.3508605957031,454.583251953125L304.7017517089844,458.305419921875C284.52630615234375,464.81915283203125,270.4912414550781,452.72216796875,250.79458618164062,455.9146728515625L250.3157958984375,455.9598388671875L250.33358764648438,455.98028564453125C240.66668701171875,457.3748779296875,229.68008422851562,460.702392578125,223.122802734375,465.74969482421875C204.9017333984375,479.7747802734375,202.46401977539062,506.1583251953125,216.20794677734375,519.5147094726562C223.122802734375,526.234619140625,227.40069580078125,527.021728515625,233.64910888671875,529.0262451171875C234.01675415039062,534.8920288085938,232.77194213867188,542.0537719726562,237.15789794921875,548.5675659179688C242.36322021484375,556.2981567382812,250.78173828125,560.2488403320312,259.8958740234375,560.9058837890625C269.7510070800781,561.6163330078125,280.64208984375,558.3023071289062,290.1084899902344,551.0158081054688C301.685302734375,542.1049194335938,308.21051025390625,521.5819702148438,310.84210205078125,509.4849853515625L315.2280578613281,490.87420654296875L324,449" style="fill: rgb(46, 56, 38); fill-opacity: 1;"/></g></g><g id="shape-c989129d-28d9-8066-8008-2cf0ac9f1962"><g class="fills" id="fills-c989129d-28d9-8066-8008-2cf0ac9f1962"><path d="M241.54385375976562,529.956787109375C241.54385375976562,529.956787109375,214.35089111328125,523.4429931640625,204.70175170898438,542.0537719726562C196.5582733154297,557.760498046875,174,559.7340087890625,174,559.7340087890625"/></g><g id="strokes-a2fee81e-05df-80dc-8008-2cf825824994-c989129d-28d9-8066-8008-2cf0ac9f1962" class="strokes"><g class="stroke-shape"><path d="M241.54385375976562,529.956787109375C241.54385375976562,529.956787109375,214.35089111328125,523.4429931640625,204.70175170898438,542.0537719726562C196.5582733154297,557.760498046875,174,559.7340087890625,174,559.7340087890625" style="fill: none; stroke-width: 10; stroke: rgb(46, 56, 38); stroke-opacity: 1;"/></g></g></g></g><g id="shape-c989129d-28d9-8066-8008-2cf0ac9f1963" rx="0" ry="0"><g id="shape-c989129d-28d9-8066-8008-2cf0ac9f1964"><g class="fills" id="fills-c989129d-28d9-8066-8008-2cf0ac9f1964"><path d="M371,259L361.3508605957031,264.5832214355469L351.7017517089844,268.3053894042969C331.52630615234375,274.81915283203125,317.4912109375,262.7221374511719,297.7945556640625,265.9146423339844L297.3157958984375,265.9598388671875L297.3335876464844,265.98028564453125C287.66668701171875,267.3748474121094,276.6800537109375,270.7024230957031,270.122802734375,275.74969482421875C251.9017333984375,289.7747802734375,249.46405029296875,316.1583251953125,263.20794677734375,329.51470947265625C270.122802734375,336.234619140625,274.40069580078125,337.021728515625,280.64910888671875,339.0262451171875C281.0167541503906,344.89202880859375,279.77191162109375,352.05377197265625,284.15789794921875,358.56756591796875C289.36322021484375,366.29815673828125,297.78173828125,370.24884033203125,306.8958740234375,370.9058837890625C316.7509765625,371.6163330078125,327.64208984375,368.30230712890625,337.1084899902344,361.01580810546875C348.685302734375,352.10491943359375,355.21051025390625,331.58197021484375,357.84210205078125,319.4849853515625L362.2280578613281,300.87420654296875L371,259" style="fill: rgb(46, 56, 38); fill-opacity: 1;"/></g></g><g id="shape-c989129d-28d9-8066-8008-2cf0ac9f1965"><g class="fills" id="fills-c989129d-28d9-8066-8008-2cf0ac9f1965"><path d="M288.5438537597656,339.956787109375C288.5438537597656,339.956787109375,261.35089111328125,333.4429931640625,251.70175170898438,352.05377197265625C243.55828857421875,367.760498046875,221,369.7340087890625,221,369.7340087890625"/></g><g id="strokes-a2fee81e-05df-80dc-8008-2cf825833e96-c989129d-28d9-8066-8008-2cf0ac9f1965" class="strokes"><g class="stroke-shape"><path d="M288.5438537597656,339.956787109375C288.5438537597656,339.956787109375,261.35089111328125,333.4429931640625,251.70175170898438,352.05377197265625C243.55828857421875,367.760498046875,221,369.7340087890625,221,369.7340087890625" style="fill: none; stroke-width: 10; stroke: rgb(46, 56, 38); stroke-opacity: 1;"/></g></g></g></g><g id="shape-c989129d-28d9-8066-8008-2cf0ac9f1966" rx="0" ry="0"><g id="shape-c989129d-28d9-8066-8008-2cf0ac9f1967"><g class="fills" id="fills-c989129d-28d9-8066-8008-2cf0ac9f1967"><path d="M79.00000762939453,186L88.64913940429688,191.58322143554688L98.29824829101562,195.30538940429688C118.47369384765625,201.81915283203125,132.50877380371094,189.72213745117188,152.20542907714844,192.91464233398438L152.6842041015625,192.9598388671875L152.66641235351562,192.98028564453125C162.3333282470703,194.37484741210938,173.31993103027344,197.70242309570312,179.877197265625,202.74969482421875C198.09828186035156,216.7747802734375,200.5359649658203,243.1583251953125,186.79205322265625,256.51470947265625C179.877197265625,263.234619140625,175.5993194580078,264.021728515625,169.3508758544922,266.0262451171875C168.98324584960938,271.89202880859375,170.2280731201172,279.05377197265625,165.84210205078125,285.56756591796875C160.6367645263672,293.29815673828125,152.21826171875,297.24884033203125,143.1041259765625,297.9058837890625C133.24900817871094,298.6163330078125,122.35791015625,295.30230712890625,112.89151000976562,288.01580810546875C101.314697265625,279.10491943359375,94.78948974609375,258.58197021484375,92.15789794921875,246.4849853515625L87.77193450927734,227.87420654296875L79.00000762939453,186" style="fill: rgb(46, 56, 38); fill-opacity: 1;"/></g></g><g id="shape-c989129d-28d9-8066-8008-2cf0ac9f1968"><g class="fills" id="fills-c989129d-28d9-8066-8008-2cf0ac9f1968"><path d="M161.45614624023438,266.956787109375C161.45614624023438,266.956787109375,188.6491241455078,260.4429931640625,198.29824829101562,279.05377197265625C206.4417266845703,294.760498046875,229,296.7340087890625,229,296.7340087890625"/></g><g id="strokes-a2fee81e-05df-80dc-8008-2cf825843e88-c989129d-28d9-8066-8008-2cf0ac9f1968" class="strokes"><g class="stroke-shape"><path d="M161.45614624023438,266.956787109375C161.45614624023438,266.956787109375,188.6491241455078,260.4429931640625,198.29824829101562,279.05377197265625C206.4417266845703,294.760498046875,229,296.7340087890625,229,296.7340087890625" style="fill: none; stroke-width: 10; stroke: rgb(46, 56, 38); stroke-opacity: 1;"/></g></g></g></g><g id="shape-c989129d-28d9-8066-8008-2cf0ac9f1969" rx="0" ry="0"><g id="shape-c989129d-28d9-8066-8008-2cf0ac9f196a"><g class="fills" id="fills-c989129d-28d9-8066-8008-2cf0ac9f196a"><path d="M102,200L110.36259460449219,204.83547973632812L118.72514343261719,208.05914306640625C136.21054077148438,213.70053100585938,148.374267578125,203.2236328125,165.4447021484375,205.98858642578125L165.85964965820312,206.0277099609375L165.84422302246094,206.04544067382812C174.2222137451172,207.25320434570312,183.7439422607422,210.1351318359375,189.42691040039062,214.50643920898438C205.218505859375,226.65316772460938,207.3311767578125,249.50320434570312,195.41978454589844,261.0707702636719C189.42691040039062,266.89068603515625,185.7194061279297,267.5723876953125,180.30409240722656,269.3084411621094C179.9854736328125,274.3886413574219,181.0643310546875,280.5912170410156,177.26315307617188,286.2326354980469C172.75186157226562,292.9278564453125,165.45582580566406,296.3494567871094,157.55691528320312,296.9184875488281C149.01580810546875,297.5337829589844,139.5768585205078,294.6636047363281,131.3726348876953,288.35296630859375C121.33940124511719,280.635498046875,115.68421936035156,262.8611755371094,113.40351867675781,252.38430786132812L109.60235595703125,236.26605224609375L102,200" style="fill: rgb(46, 64, 32); fill-opacity: 1;"/></g></g><g id="shape-c989129d-28d9-8066-8008-2cf0ac9f196b"><g class="fills" id="fills-c989129d-28d9-8066-8008-2cf0ac9f196b"><path d="M173.4619903564453,270.1143493652344C173.4619903564453,270.1143493652344,197.02923583984375,264.47296142578125,205.39181518554688,280.5912170410156C212.44949340820312,294.1943664550781,232,295.903564453125,232,295.903564453125"/></g><g id="strokes-a2fee81e-05df-80dc-8008-2cf82584ff69-c989129d-28d9-8066-8008-2cf0ac9f196b" class="strokes"><g class="stroke-shape"><path d="M173.4619903564453,270.1143493652344C173.4619903564453,270.1143493652344,197.02923583984375,264.47296142578125,205.39181518554688,280.5912170410156C212.44949340820312,294.1943664550781,232,295.903564453125,232,295.903564453125" style="fill: none; stroke-width: 8.656; stroke: rgb(46, 64, 32); stroke-opacity: 1;"/></g></g></g></g><g id="shape-c989129d-28d9-8066-8008-2cf0ac9f196c" rx="0" ry="0"><g id="shape-c989129d-28d9-8066-8008-2cf0ac9f196d"><g class="fills" id="fills-c989129d-28d9-8066-8008-2cf0ac9f196d"><path d="M102,200L110.36259460449219,204.83547973632812L118.72514343261719,208.05914306640625C136.21054077148438,213.70053100585938,148.374267578125,203.2236328125,165.4447021484375,205.98858642578125L165.85964965820312,206.0277099609375L165.84422302246094,206.04544067382812C174.2222137451172,207.25320434570312,183.7439422607422,210.1351318359375,189.42691040039062,214.50643920898438C205.218505859375,226.65316772460938,207.3311767578125,249.50320434570312,195.41978454589844,261.0707702636719C189.42691040039062,266.89068603515625,185.7194061279297,267.5723876953125,180.30409240722656,269.3084411621094C179.9854736328125,274.3886413574219,181.0643310546875,280.5912170410156,177.26315307617188,286.2326354980469C172.75186157226562,292.9278564453125,165.45582580566406,296.3494567871094,157.55691528320312,296.9184875488281C149.01580810546875,297.5337829589844,139.5768585205078,294.6636047363281,131.3726348876953,288.35296630859375C121.33940124511719,280.635498046875,115.68421936035156,262.8611755371094,113.40351867675781,252.38430786132812L109.60235595703125,236.26605224609375L102,200" style="fill: rgb(46, 64, 32); fill-opacity: 1;"/></g></g><g id="shape-c989129d-28d9-8066-8008-2cf0ac9f196e"><g class="fills" id="fills-c989129d-28d9-8066-8008-2cf0ac9f196e"><path d="M173.4619903564453,270.1143493652344C173.4619903564453,270.1143493652344,197.02923583984375,264.47296142578125,205.39181518554688,280.5912170410156C212.44949340820312,294.1943664550781,232,295.903564453125,232,295.903564453125"/></g><g id="strokes-a2fee81e-05df-80dc-8008-2cf82585914e-c989129d-28d9-8066-8008-2cf0ac9f196e" class="strokes"><g class="stroke-shape"><path d="M173.4619903564453,270.1143493652344C173.4619903564453,270.1143493652344,197.02923583984375,264.47296142578125,205.39181518554688,280.5912170410156C212.44949340820312,294.1943664550781,232,295.903564453125,232,295.903564453125" style="fill: none; stroke-width: 8.656; stroke: rgb(46, 64, 32); stroke-opacity: 1;"/></g></g></g></g><g id="shape-c989129d-28d9-8066-8008-2cf0ac9f196f" rx="0" ry="0"><g id="shape-c989129d-28d9-8066-8008-2cf0ac9f1970"><g class="fills" id="fills-c989129d-28d9-8066-8008-2cf0ac9f1970"><path d="M352,268L343.63739013671875,272.8354797363281L335.2748718261719,276.05914306640625C317.7894592285156,281.7005310058594,305.625732421875,271.2236328125,288.5552673339844,273.98858642578125L288.14031982421875,274.0277099609375L288.1557922363281,274.0454406738281C279.77777099609375,275.2532043457031,270.2560119628906,278.1351318359375,264.5730895996094,282.5064392089844C248.78146362304688,294.6531677246094,246.66885375976562,317.5032043457031,258.5802001953125,329.0707702636719C264.5730895996094,334.89068603515625,268.28057861328125,335.5723876953125,273.6959228515625,337.3084411621094C274.0144958496094,342.388671875,272.9356689453125,348.5911865234375,276.7368469238281,354.232666015625C281.24810791015625,360.9278564453125,288.5442199707031,364.3494873046875,296.4430847167969,364.91845703125C304.9841613769531,365.5338134765625,314.4231872558594,362.66357421875,322.62738037109375,356.35296630859375C332.66058349609375,348.635498046875,338.3157958984375,330.8611755371094,340.5964660644531,320.3843078613281L344.39764404296875,304.26605224609375L352,268" style="fill: rgb(46, 64, 32); fill-opacity: 1;"/></g></g><g id="shape-c989129d-28d9-8066-8008-2cf0ac9f1971"><g class="fills" id="fills-c989129d-28d9-8066-8008-2cf0ac9f1971"><path d="M280.53802490234375,338.1143493652344C280.53802490234375,338.1143493652344,256.9707946777344,332.47296142578125,248.608154296875,348.5911865234375C241.55050659179688,362.1943359375,222,363.903564453125,222,363.903564453125"/></g><g id="strokes-a2fee81e-05df-80dc-8008-2cf825866d72-c989129d-28d9-8066-8008-2cf0ac9f1971" class="strokes"><g class="stroke-shape"><path d="M280.53802490234375,338.1143493652344C280.53802490234375,338.1143493652344,256.9707946777344,332.47296142578125,248.608154296875,348.5911865234375C241.55050659179688,362.1943359375,222,363.903564453125,222,363.903564453125" style="fill: none; stroke-width: 8.656; stroke: rgb(46, 64, 32); stroke-opacity: 1;"/></g></g></g></g><g id="shape-c989129d-28d9-8066-8008-2cf0ac9f1972" rx="0" ry="0"><g id="shape-c989129d-28d9-8066-8008-2cf0ac9f1973"><g class="fills" id="fills-c989129d-28d9-8066-8008-2cf0ac9f1973"><path d="M301,463L292.63739013671875,467.83544921875L284.2748718261719,471.05914306640625C266.7894592285156,476.7005615234375,254.625732421875,466.2236328125,237.55526733398438,468.98858642578125L237.14031982421875,469.0277099609375L237.15579223632812,469.04541015625C228.77777099609375,470.253173828125,219.25601196289062,473.1351318359375,213.57308959960938,477.5064697265625C197.78146362304688,489.6531982421875,195.66885375976562,512.503173828125,207.5802001953125,524.07080078125C213.57308959960938,529.8906860351562,217.28057861328125,530.5723876953125,222.6959228515625,532.3084716796875C223.01449584960938,537.388671875,221.9356689453125,543.5911865234375,225.73684692382812,549.232666015625C230.24810791015625,555.9278564453125,237.54421997070312,559.3494873046875,245.44308471679688,559.91845703125C253.98416137695312,560.5338134765625,263.4231872558594,557.66357421875,271.62738037109375,551.3529663085938C281.66058349609375,543.635498046875,287.3157958984375,525.8612060546875,289.5964660644531,515.38427734375L293.39764404296875,499.26605224609375L301,463" style="fill: rgb(122, 176, 80); fill-opacity: 1;"/></g></g><g id="shape-c989129d-28d9-8066-8008-2cf0ac9f1974"><g class="fills" id="fills-c989129d-28d9-8066-8008-2cf0ac9f1974"><path d="M229.53802490234375,533.1143798828125C229.53802490234375,533.1143798828125,205.97079467773438,527.4729614257812,197.608154296875,543.5911865234375C190.55050659179688,557.1943359375,171,558.903564453125,171,558.903564453125"/></g><g id="strokes-a2fee81e-05df-80dc-8008-2cf825873d7a-c989129d-28d9-8066-8008-2cf0ac9f1974" class="strokes"><g class="stroke-shape"><path d="M229.53802490234375,533.1143798828125C229.53802490234375,533.1143798828125,205.97079467773438,527.4729614257812,197.608154296875,543.5911865234375C190.55050659179688,557.1943359375,171,558.903564453125,171,558.903564453125" style="fill: none; stroke-width: 8.656; stroke: rgb(122, 176, 80); stroke-opacity: 1;"/></g></g></g></g><g id="shape-c989129d-28d9-8066-8008-2cf0ac9f1975" rx="0" ry="0"><g id="shape-c989129d-28d9-8066-8008-2cf0ac9f1976"><g class="fills" id="fills-c989129d-28d9-8066-8008-2cf0ac9f1976"><path d="M53,367L61.36259460449219,371.8354797363281L69.72514343261719,375.05914306640625C87.21054077148438,380.7005310058594,99.374267578125,370.2236328125,116.4447021484375,372.98858642578125L116.85964965820312,373.0277099609375L116.84422302246094,373.0454406738281C125.22221374511719,374.2532043457031,134.7439422607422,377.1351318359375,140.42691040039062,381.5064392089844C156.218505859375,393.6531677246094,158.3311767578125,416.5032043457031,146.41978454589844,428.07080078125C140.42691040039062,433.89068603515625,136.7194061279297,434.5723876953125,131.30409240722656,436.3084716796875C130.9854736328125,441.388671875,132.0643310546875,447.5911865234375,128.26315307617188,453.232666015625C123.75186157226562,459.9278564453125,116.45582580566406,463.3494873046875,108.55691528320312,463.91845703125C100.01580810546875,464.5338134765625,90.57685852050781,461.66357421875,82.37263488769531,455.35296630859375C72.33940124511719,447.635498046875,66.68421936035156,429.8612060546875,64.40351867675781,419.38427734375L60.60235595703125,403.26605224609375L53,367" style="fill: rgb(46, 64, 32); fill-opacity: 1;"/></g></g><g id="shape-c989129d-28d9-8066-8008-2cf0ac9f1977"><g class="fills" id="fills-c989129d-28d9-8066-8008-2cf0ac9f1977"><path d="M124.46199035644531,437.1143798828125C124.46199035644531,437.1143798828125,148.02923583984375,431.47296142578125,156.39181518554688,447.5911865234375C163.44949340820312,461.1943359375,183,462.903564453125,183,462.903564453125"/></g><g id="strokes-a2fee81e-05df-80dc-8008-2cf82587f44a-c989129d-28d9-8066-8008-2cf0ac9f1977" class="strokes"><g class="stroke-shape"><path d="M124.46199035644531,437.1143798828125C124.46199035644531,437.1143798828125,148.02923583984375,431.47296142578125,156.39181518554688,447.5911865234375C163.44949340820312,461.1943359375,183,462.903564453125,183,462.903564453125" style="fill: none; stroke-width: 8.656; stroke: rgb(46, 64, 32); stroke-opacity: 1;"/></g></g></g></g><g id="shape-c989129d-28d9-8066-8008-2cf0ac9f1978" rx="0" ry="0"><g id="shape-c989129d-28d9-8066-8008-2cf0ac9f1979"><g class="fills" id="fills-c989129d-28d9-8066-8008-2cf0ac9f1979"><path d="M68,578L76.36259460449219,582.83544921875L84.72514343261719,586.0591430664062C102.21054077148438,591.7005615234375,114.374267578125,581.2236328125,131.4447021484375,583.9885864257812L131.85964965820312,584.0277099609375L131.84422302246094,584.04541015625C140.2222137451172,585.253173828125,149.7439422607422,588.1351318359375,155.42691040039062,592.5064697265625C171.218505859375,604.6531982421875,173.3311767578125,627.503173828125,161.41978454589844,639.07080078125C155.42691040039062,644.8906860351562,151.7194061279297,645.5723876953125,146.30409240722656,647.3084716796875C145.9854736328125,652.388671875,147.0643310546875,658.5911865234375,143.26315307617188,664.232666015625C138.75186157226562,670.9278564453125,131.45582580566406,674.3494873046875,123.55691528320312,674.91845703125C115.01580810546875,675.5338134765625,105.57685852050781,672.66357421875,97.37263488769531,666.3529663085938C87.33940124511719,658.635498046875,81.68421936035156,640.8612060546875,79.40351867675781,630.38427734375L75.60235595703125,614.2660522460938L68,578" style="fill: rgb(92, 122, 72); fill-opacity: 1;"/></g></g><g id="shape-c989129d-28d9-8066-8008-2cf0ac9f197a"><g class="fills" id="fills-c989129d-28d9-8066-8008-2cf0ac9f197a"><path d="M139.4619903564453,648.1143798828125C139.4619903564453,648.1143798828125,163.02923583984375,642.4729614257812,171.39181518554688,658.5911865234375C178.44949340820312,672.1943359375,198,673.903564453125,198,673.903564453125"/></g><g id="strokes-a2fee81e-05df-80dc-8008-2cf8258864f9-c989129d-28d9-8066-8008-2cf0ac9f197a" class="strokes"><g class="stroke-shape"><path d="M139.4619903564453,648.1143798828125C139.4619903564453,648.1143798828125,163.02923583984375,642.4729614257812,171.39181518554688,658.5911865234375C178.44949340820312,672.1943359375,198,673.903564453125,198,673.903564453125" style="fill: none; stroke-width: 8.656; stroke: rgb(92, 122, 72); stroke-opacity: 1;"/></g></g></g></g><g id="shape-c989129d-28d9-8066-8008-2cf0ac9f197b"><g class="fills" id="fills-c989129d-28d9-8066-8008-2cf0ac9f197b"><path d="M194.06089782714844,186C194.06089782714844,186,228.99783325195312,233.69659423828125,232.0609130859375,297C234.99783325195312,357.69659423828125,194.06089782714844,439,194.06089782714844,439C194.06089782714844,439,146.06089782714844,514,185.06089782714844,632C223.69744873046875,748.9002685546875,186.06089782714844,780,186.06089782714844,780"/></g><g id="strokes-a2fee81e-05df-80dc-8008-2cf82588c680-c989129d-28d9-8066-8008-2cf0ac9f197b" class="strokes"><g class="stroke-shape"><path d="M194.06089782714844,186C194.06089782714844,186,228.99783325195312,233.69659423828125,232.0609130859375,297C234.99783325195312,357.69659423828125,194.06089782714844,439,194.06089782714844,439C194.06089782714844,439,146.06089782714844,514,185.06089782714844,632C223.69744873046875,748.9002685546875,186.06089782714844,780,186.06089782714844,780" style="fill: none; stroke-width: 10; stroke: rgb(46, 64, 32); stroke-opacity: 1; stroke-linecap: round;"/></g></g></g><g id="shape-c989129d-28d9-8066-8008-2cf22d75d0cc"><g class="fills" id="fills-c989129d-28d9-8066-8008-2cf22d75d0cc"><path d="M172,559C172,559,163,568,185.06089782714844,632C225.18368530273438,748.3985595703125,186.06089782714844,780,186.06089782714844,780"/></g><g id="strokes-a2fee81e-05df-80dc-8008-2cf8258939c7-c989129d-28d9-8066-8008-2cf22d75d0cc" class="strokes"><g class="stroke-shape"><path d="M172,559C172,559,163,568,185.06089782714844,632C225.18368530273438,748.3985595703125,186.06089782714844,780,186.06089782714844,780" style="fill: none; stroke-width: 10; stroke: rgb(122, 176, 80); stroke-opacity: 1; stroke-linecap: round;"/></g></g></g></g><g id="shape-c989129d-28d9-8066-8008-2cf2c3bb779b" style="opacity: 0.75;"><defs><filter id="filter-render-38" x="-0.019900497512437807" y="-0.029304029304029304" width="1.0398009950248757" height="1.0586080586080586" filterUnits="objectBoundingBox" color-interpolation-filters="sRGB"><feFlood flood-opacity="0" result="BackgroundImageFix"/><feBlend mode="normal" in="SourceGraphic" in2="BackgroundImageFix" result="shape"/><feGaussianBlur stdDeviation="4" result="filter_c989129d-28d9-8066-8008-2c2d730e8759"/></filter><filter id="filter-blur-render-38" x="-0.019900497512437807" y="-0.029304029304029304" width="1.0398009950248757" height="1.0586080586080586" filterUnits="objectBoundingBox" color-interpolation-filters="sRGB"><feFlood flood-opacity="0" result="BackgroundImageFix"/><feBlend mode="normal" in="SourceGraphic" in2="BackgroundImageFix" result="shape"/><feGaussianBlur stdDeviation="4" result="filter_c989129d-28d9-8066-8008-2c2d730e8759"/></filter></defs><g class="fills" id="fills-c989129d-28d9-8066-8008-2cf2c3bb779b"><rect width="402.00000000000006" height="273" x="0" transform="matrix(1.000000, 0.000000, 0.000000, 1.000000, 0.000000, 0.000000)" style="fill: rgb(26, 31, 20); fill-opacity: 1;" ry="0" rx="0" filter="url(#filter-render-38)" y="1.0000000000000853"/></g></g><g id="shape-c989129d-28d9-8066-8008-2cf0bc7c73b1"><g transform="matrix(1.000000, 0.000000, 0.000000, 1.000000, 0.000000, 0.000000)" class="text-container" x="60.49999999999994" y="83.00000000000006" width="281.00000000000006" height="44" rx="0" ry="0"><defs><pattern patternUnits="objectBoundingBox" width="280.80169677734375" height="45.302005767822266" id="fill-0-render-39-0"><g><rect width="280.80169677734375" height="45.302005767822266" style="fill: rgb(157, 184, 136); fill-opacity: 1;"/></g></pattern></defs><g class="fills" id="fills-c989129d-28d9-8066-8008-2cf0bc7c73b1"><text x="60.49999999999994" y="126.79193890094763" dominant-baseline="ideographic" textLength="280.80169677734375" lengthAdjust="spacingAndGlyphs" style="text-transform: none; font-family: &quot;Source Code Pro&quot;; letter-spacing: normal; font-style: normal; font-weight: 700; white-space: pre; font-size: 36px; text-decoration: none; direction: ltr; fill: rgb(157, 184, 136); fill-opacity: 1;">Your Progress</text></g></g></g><g id="shape-c989129d-28d9-8066-8008-2cf178dd5c6e"><g transform="matrix(1.000000, 0.000000, 0.000000, 1.000000, 0.000000, 0.000000)" class="text-container" x="46" y="39.00000000000006" width="51" height="17" rx="0" ry="0"><defs><pattern patternUnits="objectBoundingBox" width="50.39848327636719" height="17.617448806762695" id="fill-0-render-40-0"><g><rect width="50.39848327636719" height="17.617448806762695" style="fill: rgb(157, 184, 136); fill-opacity: 1;"/></g></pattern></defs><g class="fills" id="fills-c989129d-28d9-8066-8008-2cf178dd5c6e"><text x="46" y="56.20847231149679" dominant-baseline="ideographic" textLength="50.39848327636719" lengthAdjust="spacingAndGlyphs" style="text-transform: none; font-family: &quot;Source Code Pro&quot;; letter-spacing: normal; font-style: normal; font-weight: 400; white-space: pre; font-size: 14px; text-decoration: none; direction: ltr; fill: rgb(157, 184, 136); fill-opacity: 1;">Topics</text></g></g></g><g id="shape-c989129d-28d9-8066-8008-2cf178dd5c72"><g class="fills" id="fills-c989129d-28d9-8066-8008-2cf178dd5c72"><path d="M28,47.4949951171875L40,47.4949951171875"/></g><g id="strokes-a2fee81e-05df-80dc-8008-2cf8258c6be6-c989129d-28d9-8066-8008-2cf178dd5c72" class="strokes"><g class="stroke-shape"><defs><marker refX="2" fill-opacity="1" orient="auto-start-reverse" id="marker-render-41-line-arrow" viewBox="0 0 3 6" fill="#9db888" refY="3" markerWidth="8.5" markerHeight="8.5"><path d="M 0.5 0.5 L 3 3 L 0.5 5.5 L 0 5 L 2 3 L 0 1 z"/></marker><marker refX="3" fill-opacity="1" orient="auto-start-reverse" id="marker-render-41-square" viewBox="0 0 6 6" fill="#9db888" refY="3" markerWidth="6" markerHeight="6"><rect x="3" y="2.5" width="0.5" height="1"/></marker></defs><path d="M28,47.4949951171875L40,47.4949951171875" style="fill: none; stroke-width: 2; stroke: rgb(157, 184, 136); stroke-opacity: 1; marker-start: url(&quot;#marker-render-41-line-arrow&quot;); marker-end: url(&quot;#marker-render-41-square&quot;);"/></g></g></g><g id="shape-c989129d-28d9-8066-8008-2cf1adfe449e"><g transform="matrix(1.000000, 0.000000, 0.000000, 1.000000, 0.000000, 0.000000)" class="text-container" x="95" y="608" width="58" height="15" rx="0" ry="0"><defs><pattern patternUnits="objectBoundingBox" width="57.602760314941406" height="15.100669860839844" id="fill-0-render-42-0"><g><rect width="57.602760314941406" height="15.100669860839844" style="fill: rgb(157, 184, 136); fill-opacity: 1;"/></g></pattern></defs><g class="fills" id="fills-c989129d-28d9-8066-8008-2cf1adfe449e"><text x="95" y="622.5973142385483" dominant-baseline="ideographic" textLength="57.602760314941406" lengthAdjust="spacingAndGlyphs" style="text-transform: none; font-family: &quot;Source Code Pro&quot;; letter-spacing: normal; font-style: normal; font-weight: 700; white-space: pre; font-size: 12px; text-decoration: none; direction: ltr; fill: rgb(157, 184, 136); fill-opacity: 1;">Level 1 </text></g></g></g><g id="shape-c989129d-28d9-8066-8008-2cf20c950a3e"><g transform="matrix(1.000000, 0.000000, 0.000000, 1.000000, 0.000000, 0.000000)" class="text-container" x="114" y="629" width="20" height="17" rx="0" ry="0"><defs><pattern patternUnits="objectBoundingBox" width="19.221895217895508" height="18.120805740356445" id="fill-0-render-43-0"><g><rect width="19.221895217895508" height="18.120805740356445" style="fill: rgb(0, 0, 0); fill-opacity: 1;"/></g></pattern></defs><g class="fills" id="fills-c989129d-28d9-8066-8008-2cf20c950a3e"><text x="114" y="646.1140944957733" dominant-baseline="ideographic" textLength="19.221895217895508" lengthAdjust="spacingAndGlyphs" style="text-transform: none; font-family: sourcesanspro; letter-spacing: normal; font-style: normal; font-weight: 400; white-space: pre; font-size: 14px; text-decoration: none; direction: ltr; fill: rgb(0, 0, 0); fill-opacity: 1;">✅</text></g></g></g><g id="shape-c989129d-28d9-8066-8008-2cf27db0ef3a"><g transform="matrix(1.000000, 0.000000, 0.000000, 1.000000, 0.000000, 0.000000)" class="text-container" x="81" y="405.00000000000006" width="51" height="15" rx="0" ry="0"><defs><pattern patternUnits="objectBoundingBox" width="50.40635299682617" height="15.100669860839844" id="fill-0-render-44-0"><g><rect width="50.40635299682617" height="15.100669860839844" style="fill: rgb(157, 184, 136); fill-opacity: 1;"/></g></pattern></defs><g class="fills" id="fills-c989129d-28d9-8066-8008-2cf27db0ef3a"><text x="81" y="419.59731423854834" dominant-baseline="ideographic" textLength="50.40635299682617" lengthAdjust="spacingAndGlyphs" style="text-transform: none; font-family: &quot;Source Code Pro&quot;; letter-spacing: normal; font-style: normal; font-weight: 700; white-space: pre; font-size: 12px; text-decoration: none; direction: ltr; fill: rgb(157, 184, 136); fill-opacity: 1;">Level 3</text></g></g></g><g id="shape-c989129d-28d9-8066-8008-2cf291d2ff41"><g transform="matrix(1.000000, 0.000000, 0.000000, 1.000000, 0.000000, 0.000000)" class="text-container" x="274" y="306.00000000000006" width="51" height="15" rx="0" ry="0"><defs><pattern patternUnits="objectBoundingBox" width="50.40635299682617" height="15.100669860839844" id="fill-0-render-45-0"><g><rect width="50.40635299682617" height="15.100669860839844" style="fill: rgb(157, 184, 136); fill-opacity: 1;"/></g></pattern></defs><g class="fills" id="fills-c989129d-28d9-8066-8008-2cf291d2ff41"><text x="274" y="320.59731423854834" dominant-baseline="ideographic" textLength="50.40635299682617" lengthAdjust="spacingAndGlyphs" style="text-transform: none; font-family: &quot;Source Code Pro&quot;; letter-spacing: normal; font-style: normal; font-weight: 700; white-space: pre; font-size: 12px; text-decoration: none; direction: ltr; fill: rgb(157, 184, 136); fill-opacity: 1;">Level 4</text></g></g></g><g id="shape-c989129d-28d9-8066-8008-2cf2a1d2ee09"><g transform="matrix(1.000000, 0.000000, 0.000000, 1.000000, 0.000000, 0.000000)" class="text-container" x="129" y="232.00000000000006" width="51" height="15" rx="0" ry="0"><defs><pattern patternUnits="objectBoundingBox" width="50.40635299682617" height="15.100669860839844" id="fill-0-render-46-0"><g><rect width="50.40635299682617" height="15.100669860839844" style="fill: rgb(157, 184, 136); fill-opacity: 1;"/></g></pattern></defs><g class="fills" id="fills-c989129d-28d9-8066-8008-2cf2a1d2ee09"><text x="129" y="246.59731423854834" dominant-baseline="ideographic" textLength="50.40635299682617" lengthAdjust="spacingAndGlyphs" style="text-transform: none; font-family: &quot;Source Code Pro&quot;; letter-spacing: normal; font-style: normal; font-weight: 700; white-space: pre; font-size: 12px; text-decoration: none; direction: ltr; fill: rgb(157, 184, 136); fill-opacity: 1;">Level 5</text></g></g></g><g id="shape-c989129d-28d9-8066-8008-2cf262b7df50"><g transform="matrix(1.000000, 0.000000, 0.000000, 1.000000, 0.000000, 0.000000)" class="text-container" x="220" y="501.00000000000006" width="58" height="14.999999999999943" rx="0" ry="0"><defs><pattern patternUnits="objectBoundingBox" width="57.602760314941406" height="15.100669860839844" id="fill-0-render-47-0"><g><rect width="57.602760314941406" height="15.100669860839844" style="fill: rgb(232, 240, 216); fill-opacity: 1;"/></g></pattern></defs><g class="fills" id="fills-c989129d-28d9-8066-8008-2cf262b7df50"><text x="220" y="515.5973142385483" dominant-baseline="ideographic" textLength="57.602760314941406" lengthAdjust="spacingAndGlyphs" style="text-transform: none; font-family: &quot;Source Code Pro&quot;; letter-spacing: normal; font-style: normal; font-weight: 700; white-space: pre; font-size: 12px; text-decoration: none; direction: ltr; fill: rgb(232, 240, 216); fill-opacity: 1;">Level 2 </text></g></g></g><g id="shape-c989129d-28d9-8066-8008-2cf178dd5c6f" rx="0" ry="0"><g id="shape-c989129d-28d9-8066-8008-2cf178dd5c70"><g transform="matrix(1.000000, 0.000000, 0.000000, 1.000000, 0.000000, 0.000000)" class="text-container" x="249" y="30" width="48" height="12" rx="0" ry="0"><defs><pattern patternUnits="objectBoundingBox" width="47.98394775390625" height="12.583890914916992" id="fill-0-render-49-0"><g><rect width="47.98394775390625" height="12.583890914916992" style="fill: rgb(157, 184, 136); fill-opacity: 1;"/></g></pattern></defs><g class="fills" id="fills-c989129d-28d9-8066-8008-2cf178dd5c70"><text x="249" y="42.08053529262543" dominant-baseline="ideographic" textLength="47.98394775390625" lengthAdjust="spacingAndGlyphs" style="text-transform: none; font-family: &quot;Source Code Pro&quot;; letter-spacing: normal; font-style: normal; font-weight: 500; white-space: pre; font-size: 10px; text-decoration: none; direction: ltr; fill: rgb(157, 184, 136); fill-opacity: 1;">User2932</text></g></g></g><g id="shape-c989129d-28d9-8066-8008-2cf178dd5c71"><g transform="matrix(1.000000, 0.000000, 0.000000, 1.000000, 0.000000, 0.000000)" class="text-container" x="299" y="30" width="60" height="12" rx="0" ry="0"><defs><pattern patternUnits="objectBoundingBox" width="59.985836029052734" height="12.583890914916992" id="fill-0-render-50-0"><g><rect width="59.985836029052734" height="12.583890914916992" style="fill: rgb(74, 112, 48); fill-opacity: 1;"/></g></pattern></defs><g class="fills" id="fills-c989129d-28d9-8066-8008-2cf178dd5c71"><text x="299" y="42.08053529262543" dominant-baseline="ideographic" textLength="59.985836029052734" lengthAdjust="spacingAndGlyphs" style="text-transform: none; font-family: &quot;Source Code Pro&quot;; letter-spacing: normal; font-style: normal; font-weight: 400; white-space: pre; font-size: 10px; text-decoration: none; direction: ltr; fill: rgb(74, 112, 48); fill-opacity: 1;">(sign out)</text></g></g></g></g><g id="shape-c989129d-28d9-8066-8008-2cf36928dc17"><defs><filter id="filter-render-51" x="-0.019851116625310174" y="-0.04060913705583756" width="1.0397022332506203" height="1.0812182741116751" filterUnits="objectBoundingBox" color-interpolation-filters="sRGB"><feFlood flood-opacity="0" result="BackgroundImageFix"/><feBlend mode="normal" in="SourceGraphic" in2="BackgroundImageFix" result="shape"/><feGaussianBlur stdDeviation="4" result="filter_c989129d-28d9-8066-8008-2cf39860eb6f"/></filter><filter id="filter-blur-render-51" x="-0.019851116625310174" y="-0.04060913705583756" width="1.0397022332506203" height="1.0812182741116751" filterUnits="objectBoundingBox" color-interpolation-filters="sRGB"><feFlood flood-opacity="0" result="BackgroundImageFix"/><feBlend mode="normal" in="SourceGraphic" in2="BackgroundImageFix" result="shape"/><feGaussianBlur stdDeviation="4" result="filter_c989129d-28d9-8066-8008-2cf39860eb6f"/></filter></defs><g class="fills" id="fills-c989129d-28d9-8066-8008-2cf36928dc17"><ellipse cx="200.5" cy="861.5" rx="201.5" ry="98.5" transform="matrix(1.000000, 0.000000, 0.000000, 1.000000, 0.000000, 0.000000)" filter="url(#filter-render-51)" style="fill: rgb(31, 19, 0); fill-opacity: 1;"/></g></g></g></g></g></g></g></g></svg>